<svg xmlns="http://www.w3.org/2000/svg" viewBox="0 0 525.43 799.44"><defs><style>.cls-1{fill:#eceaf4;}.cls-2{fill:none;}.cls-3{fill:#f9f9f9;}.cls-4{fill:#ffe3d6;}.cls-5{fill:#675d75;}.cls-6{fill:#ffebe6;}.cls-7{fill:#ff8f9e;}.cls-8{fill:#b9a6da;}.cls-9{fill:#efedf2;}.cls-10{fill:#b09bd3;}.cls-11{fill:#b19cd4;}.cls-12{fill:#b29dd4;}.cls-13{fill:#b29ed5;}.cls-14{fill:#b39fd5;}.cls-15{fill:#b4a0d6;}.cls-16{fill:#b5a1d7;}.cls-17{fill:#b5a2d7;}.cls-18{fill:#b6a3d8;}.cls-19{fill:#b7a4d9;}.cls-20{fill:#b8a5d9;}.cls-21{fill:#b9a7da;}.cls-22{fill:#baa8db;}.cls-23{fill:#bba9dc;}.cls-24{fill:#bcaadc;}.cls-25{fill:#bcabdd;}.cls-26{fill:#bdacde;}.cls-27{fill:#beadde;}.cls-28{fill:#bfaedf;}.cls-29{fill:#c0afdf;}.cls-30{fill:#c0b0e0;}.cls-31{fill:#c1b1e1;}.cls-32{fill:#c2b1e1;}.cls-33{fill:#c3b2e2;}.cls-34{fill:#c3b3e3;}.cls-35{fill:#c4b4e3;}.cls-36{fill:#c5b5e4;}.cls-37{fill:#c6b6e4;}.cls-38{fill:#c7b7e5;}.cls-39{fill:#c7b8e6;}.cls-40{fill:#c8b9e6;}.cls-41{fill:#c9bae7;}.cls-42{fill:#cabbe8;}.cls-43{fill:#cabce8;}.cls-44{fill:#cbbde9;}.cls-45{fill:#ccbee9;}.cls-46{fill:#cdbfea;}.cls-47{fill:#cec0eb;}.cls-48{fill:#cec1eb;}.cls-49{fill:#cfc2ec;}.cls-50{fill:#d0c3ed;}.cls-51{fill:#d1c4ed;}.cls-52{fill:#d1c5ee;}.cls-53{fill:#d2c6ee;}.cls-54{fill:#d3c7ef;}</style></defs><g id="Layer_2" data-name="Layer 2"><g id="Layer_1-2" data-name="Layer 1"><rect class="cls-1" x="124.66" y="369.54" width="276.12" height="525.43" rx="77.42" transform="translate(894.96 369.54) rotate(90)"/><rect class="cls-1" x="117.02" y="391.69" width="291.38" height="524.13" rx="77.42" transform="translate(916.46 391.04) rotate(90)"/><path class="cls-1" d="M119.12,656.88v-2.22H80.43V626.45C67,623.38,53.64,620,40.55,616.26l-21.82-6.18V569c0-51.69,24.44-100.17,67.08-135.91a85.24,85.24,0,0,1-12.29-89.68l.22-.5c5.47-12.18,9.57-20.18,12.55-26,2.39-4.66,4-7.74,5.23-10.88,5.58-13.83,5.94-31.41,1.08-52.34a77.4,77.4,0,0,1-16.73-48A76.48,76.48,0,0,1,89,162.54c-1.63-56.34,12.26-99.18,41.36-127.46C151.3,14.74,179.94,2.76,213.18.45,217.52.15,222,0,226.81,0a73.86,73.86,0,0,1,9.26.61A66.66,66.66,0,0,1,261.9,9.37,66.08,66.08,0,0,1,287.79.61,74.39,74.39,0,0,1,297.1,0c4.82,0,9.28.15,13.63.45C344,2.76,372.61,14.74,393.54,35.08c29.24,28.42,43.13,71.54,41.34,128.29a77.21,77.21,0,0,1-4.44,90.74c-3.14,12.25-3.79,23.75-1.95,34.24,1.48,8.4,4.13,14.1,9.92,26.6,3.34,7.21,7.5,16.18,12.44,28l.25.6a87.4,87.4,0,0,1-13.76,89.37c42.8,35.73,67.3,84.21,67.3,136.08v41.05l-21.81,6.19c-12.59,3.57-25.41,6.87-38.31,9.84v7H439v23.79Z"/><path class="cls-1" d="M120.25,701.5a90.93,90.93,0,0,1-24.46-3,90.88,90.88,0,0,1-24.46,3H45.6l-2.17-14.08H40.59V669l-5.71-37.11h5.71V617.71H151v14.15h5.71L151,669v18.45h-2.84L146,701.5Z"/><polygon class="cls-1" points="58.83 720.69 58.83 714.17 39.11 714.17 39.11 644.46 152.47 644.46 152.47 714.17 132.76 714.17 132.76 720.69 58.83 720.69"/><polygon class="cls-1" points="40.59 733.29 40.59 657.13 114.53 657.13 114.53 663.66 150.99 663.66 150.99 733.29 40.59 733.29"/><rect class="cls-1" x="101.37" y="617.56" width="93.05" height="113.51"/><rect class="cls-1" x="139.31" y="616.82" width="73.93" height="116.47"/><path class="cls-1" d="M227.49,733.29a42.1,42.1,0,0,1-28.16-10.23A39,39,0,0,1,189.51,710h-5.14v-68.9H297.66V710H292.6a39.08,39.08,0,0,1-9.83,13.12,42,42,0,0,1-28.15,10.22Z"/><path class="cls-1" d="M265.51,698.46a102.11,102.11,0,0,1-20.22-1.81c-1.44-.29-2.86-.62-4.24-1q-2.07.55-4.23,1a102.11,102.11,0,0,1-20.22,1.81h-25l-2.13-11.71h-3.58V667.09l-6.68-36.78h6.68V617.85h110.4v12.46h6.69l-6.69,36.77v19.67h-3.57l-2.13,11.71Z"/><path class="cls-1" d="M293.23,708.09c-15.74,0-26-6.05-31.91-11.14-9.52-8.23-14.77-20.07-14.77-33.31v-2.22c0-13.24,5.25-25.07,14.78-33.32C267.19,623,277.49,617,293.23,617s26,6,31.9,11.13c9.53,8.25,14.77,20.09,14.77,33.32v2.22c0,13.24-5.24,25.07-14.77,33.32C319.26,702,309,708.09,293.23,708.09Z"/><rect class="cls-1" x="248.18" y="649.95" width="110.4" height="83.35"/><rect class="cls-1" x="284.65" y="616.82" width="73.93" height="90.83"/><rect class="cls-1" x="345.57" y="616.82" width="73.93" height="116.47"/><polygon class="cls-1" points="307.48 731.07 307.48 617.56 381.41 617.56 381.41 659.95 399.05 659.95 399.05 731.07 307.48 731.07"/><polygon class="cls-1" points="406.34 733.29 406.34 616.97 480.28 616.97 480.28 638.38 485.83 638.38 485.83 709.5 480.28 709.5 480.28 733.29 406.34 733.29"/><polygon class="cls-1" points="368.4 731.07 368.4 617.71 459.89 617.71 459.89 659.95 461.38 659.95 461.38 731.07 368.4 731.07"/><path class="cls-1" d="M382.63,432.35c.56.29,1.14.56,1.69.86,4.94-2.08,9.52-4.25,13.75-6.46,25.35-13.21,36.57-44.62,25.31-71.7-.07-.17-.15-.35-.22-.53-13.61-32.64-20.91-42.21-24.21-61-2.1-11.93-3-30.17,4.55-54.33a46.68,46.68,0,0,0,14-33.51c0-25.35-19.71-45.89-44.05-46h.43a43.09,43.09,0,0,1,30.51,12.79v0c7.93-122-60.74-139.7-95.75-142.13-4.48-.31-8.41-.38-11.55-.38a44.62,44.62,0,0,0-5.58.38A35.39,35.39,0,0,0,262.4,53c-1.82-4.29-9.93-20.14-30.06-22.66a44.07,44.07,0,0,0-5.53-.38c-3.14,0-7.07.07-11.55.38-35,2.43-103.68,20.09-95.75,142.13v0a47.13,47.13,0,0,0,.36,66.68c10.28,37.46,5.9,62.1-.53,78-3.79,9.39-8.58,16.48-18.22,37.93l-.23.51c-11.67,26-1.57,57.21,23,70.3,4.63,2.47,9.68,4.9,15.17,7.21C84.6,462.5,48.73,512.39,48.73,569V587.4c17.79,5,39.4,10.46,64.33,15.25l.33,1.26a20.76,20.76,0,0,0,4.11-.41q5.2,1,10.59,1.89h-6.77v8.15H110.43v11.12h36.46V613.54H134.66v-7q7.08,1.15,14.46,2.22v18.17h13.93V610.59q5.5.69,11.15,1.33a11.43,11.43,0,0,0-.78,4.29,9.87,9.87,0,0,0,3.27,7.78,12.12,12.12,0,0,0,8.37,2.89h27.13a12.12,12.12,0,0,0,8.37-2.89,9.86,9.86,0,0,0,3.26-7.78c0-.12,0-.22,0-.34,3.94.19,7.93.34,11.94.48v10.53h50.4V616.4c3.37-.1,6.7-.23,10-.37v8.63h31.57V614q3.28-.27,6.52-.57v13.43h13.93V612q4.5-.49,8.9-1v13.64h33V613.54H371V609.2q12.4-1.74,24-3.75v21.43H409V603.09h5.56v-1.24c22.86-4.53,43-9.59,60.12-14.45V569C474.64,511.81,438,461.5,382.63,432.35Zm2.08-182.28.68-.18-.68.18-.13,0ZM209.48,617.21a1.36,1.36,0,0,1-1,.41H188.77a1.36,1.36,0,0,1-1-.41,1.34,1.34,0,0,1-.41-1,1.32,1.32,0,0,1,.41-1,1.36,1.36,0,0,1,1-.41h17.06l3.38.23a1.16,1.16,0,0,1,.27.18,1.36,1.36,0,0,1,.41,1A1.37,1.37,0,0,1,209.48,617.21Zm53.23-495.6a64,64,0,0,0,2.75,6.33,64,64,0,0,1-2.75-6.33Zm9.58,496.75h-22.6v-1.67q11.12.16,22.6,0Zm.69-478.9c1,1.15,1.95,2.26,3,3.34C274.93,141.72,273.94,140.61,273,139.46Zm8.93,213c1.88-.36,3.73-.76,5.57-1.22C285.64,351.71,283.79,352.11,281.91,352.47Z"/><path class="cls-1" d="M81.08,660.94a55.38,55.38,0,0,1-11.23.92l1.48,9.64q16.53,0,24.46-5.49,7.93,5.49,24.46,5.49l1.48-9.64a55.45,55.45,0,0,1-11.23-.92,10,10,0,0,1-6.19-3.52H121v-9.71H70.59v9.71H87.27A10,10,0,0,1,81.08,660.94Z"/><polygon class="cls-1" points="69.11 684.17 88.83 684.17 88.83 690.69 102.76 690.69 102.76 684.17 122.47 684.17 122.47 674.46 69.11 674.46 69.11 684.17"/><polygon class="cls-1" points="84.53 687.13 70.59 687.13 70.59 703.29 120.99 703.29 120.99 693.66 84.53 693.66 84.53 687.13"/><path class="cls-1" d="M150.49,663.57H145.3v-16H131.37v53.51h33V647.56H150.49Zm0,26.38H145.3V674.68h5.19Z"/><rect class="cls-1" x="169.31" y="646.82" width="13.93" height="56.48"/><path class="cls-1" d="M214.37,680h19.72v2.44h-6.6a12.31,12.31,0,0,0-8.41,2.82,10.64,10.64,0,0,0,0,15.27,12.35,12.35,0,0,0,8.41,2.81h27.13a12.35,12.35,0,0,0,8.41-2.81,10.66,10.66,0,0,0,0-15.27,12.31,12.31,0,0,0-8.41-2.82H248V680h19.64v-8.9H214.37Zm36.54,11.48a1.36,1.36,0,0,1,1,.41,1.37,1.37,0,0,1,.41,1,1.36,1.36,0,0,1-.41,1,1.32,1.32,0,0,1-1,.41H231.2a1.4,1.4,0,0,1-1.41-1.41,1.34,1.34,0,0,1,.41-1,1.36,1.36,0,0,1,1-.41Z"/><path class="cls-1" d="M215.11,660.31l1.49,8.15a74.4,74.4,0,0,0,14.34-1.22,26.39,26.39,0,0,0,10.11-4,26.44,26.44,0,0,0,10.12,4,74.4,74.4,0,0,0,14.34,1.22l1.48-8.15a54.75,54.75,0,0,1-9.67-.71,12.36,12.36,0,0,1-6.19-2.85h15.12v-8.9h-50.4v8.9H231a12.33,12.33,0,0,1-6.18,2.85A54.8,54.8,0,0,1,215.11,660.31Z"/><path class="cls-1" d="M281,674.28q4.41,3.81,12.27,3.81t12.27-3.81q4.39-3.82,4.4-10.64v-2.22q0-6.82-4.4-10.64T293.23,647q-7.86,0-12.27,3.81t-4.41,10.64v2.22Q276.55,670.47,281,674.28Zm9.68-13.6a2.52,2.52,0,0,1,.7-1.93,3.06,3.06,0,0,1,3.82,0,2.63,2.63,0,0,1,.66,1.93v3.7a2.65,2.65,0,0,1-.66,1.89,2.61,2.61,0,0,1-4.52-1.89Z"/><path class="cls-1" d="M314.72,682.69h-22.6V680H278.18v23.34h50.4V680H314.72Zm0,11.71h-22.6v-2.82h22.6Z"/><rect class="cls-1" x="314.65" y="646.82" width="13.93" height="30.83"/><rect class="cls-1" x="375.57" y="646.82" width="13.93" height="56.48"/><polygon class="cls-1" points="351.41 647.56 337.48 647.56 337.48 701.07 369.05 701.07 369.05 689.95 351.41 689.95 351.41 647.56"/><polygon class="cls-1" points="450.28 646.97 436.34 646.97 436.34 703.29 450.28 703.29 450.28 679.5 455.83 679.5 455.83 668.38 450.28 668.38 450.28 646.97"/><polygon class="cls-1" points="412.33 658.82 429.89 658.82 429.89 647.71 398.4 647.71 398.4 701.07 431.38 701.07 431.38 689.95 412.33 689.95 412.33 658.82"/><rect class="cls-1" x="30.65" y="538.06" width="464.13" height="231.38" rx="47.42"/><rect class="cls-1" x="30.33" y="531.13" width="464.78" height="223.75" rx="47.42"/><rect class="cls-1" x="30" y="524.19" width="465.43" height="216.11" rx="47.42"/><path class="cls-2" d="M232.73,348.37l1.38.38Z"/><path class="cls-2" d="M222.49,344.93l.66.25Z"/><path class="cls-2" d="M243.35,350.78l1.77.31Z"/><path class="cls-2" d="M238,349.7l1.62.36Z"/><path class="cls-2" d="M227.56,346.78l1.08.35Z"/><path class="cls-2" d="M210.13,339.14c.32.18.64.36,1,.53C210.77,339.5,210.45,339.32,210.13,339.14Z"/><path class="cls-2" d="M204.37,335.77c.34.22.69.42,1,.63C205.06,336.19,204.71,336,204.37,335.77Z"/><path class="cls-2" d="M200.78,333.41l1.24.84Z"/><path class="cls-2" d="M213.64,341l1.25.61Z"/><path class="cls-2" d="M389.42,246.6c.25-.1.52-.18.77-.29C389.94,246.42,389.67,246.5,389.42,246.6Z"/><path class="cls-2" d="M393.52,244.71l.35-.18Z"/><path class="cls-2" d="M316.18,407.71c1.06.19,2.1.41,3.15.61C318.28,408.12,317.24,407.9,316.18,407.71Z"/><path class="cls-2" d="M385,248.1c.46-.12.92-.22,1.36-.36C385.87,247.88,385.41,248,385,248.1Z"/><path class="cls-2" d="M397.28,242.48l.08,0Z"/><path class="cls-2" d="M248.85,351.59l1.83.23Z"/><path class="cls-2" d="M254.61,352.14c.56,0,1.12.09,1.68.12C255.73,352.23,255.17,352.18,254.61,352.14Z"/><path class="cls-2" d="M380,249.15c.74-.11,1.48-.2,2.2-.35C381.52,249,380.78,249,380,249.15Z"/><path class="cls-2" d="M373.6,249.69a42.63,42.63,0,0,0,4.4-.23A42.63,42.63,0,0,1,373.6,249.69Z"/><path class="cls-2" d="M192.25,327l1.28,1Z"/><path class="cls-2" d="M154.09,266.29c.31,1.23.64,2.44,1,3.65C154.73,268.73,154.4,267.52,154.09,266.29Z"/><path class="cls-2" d="M152.79,260.71c.32,1.55.66,3.09,1,4.61C153.45,263.8,153.11,262.26,152.79,260.71Z"/><path class="cls-2" d="M155.51,271.36c.37,1.22.76,2.43,1.17,3.64C156.27,273.79,155.88,272.58,155.51,271.36Z"/><path class="cls-2" d="M159.12,281.51c.41,1,.84,2,1.28,3C160,283.53,159.53,282.52,159.12,281.51Z"/><path class="cls-2" d="M157,275.88c.5,1.44,1,2.86,1.58,4.27C158,278.74,157.48,277.32,157,275.88Z"/><path class="cls-2" d="M325.89,409.67c1.2.26,2.4.55,3.59.83C328.29,410.22,327.09,409.93,325.89,409.67Z"/><path class="cls-2" d="M151,249.65c.18,1.62.4,3.22.64,4.82C151.43,252.87,151.21,251.27,151,249.65Z"/><path class="cls-2" d="M151.89,255.84c.2,1.23.43,2.46.66,3.68C152.32,258.3,152.09,257.07,151.89,255.84Z"/><path class="cls-2" d="M178,312.76c.59.69,1.17,1.38,1.77,2.06C179.14,314.14,178.56,313.45,178,312.76Z"/><path class="cls-2" d="M174.42,308.34c.52.68,1.06,1.36,1.59,2C175.48,309.7,174.94,309,174.42,308.34Z"/><path class="cls-2" d="M188.93,324.09c.44.4.88.8,1.33,1.19C189.81,324.89,189.37,324.49,188.93,324.09Z"/><path class="cls-2" d="M171.66,304.54c.49.71,1,1.42,1.51,2.12C172.66,306,172.15,305.25,171.66,304.54Z"/><path class="cls-2" d="M163.42,290.89c.54,1,1.08,2.07,1.65,3.09C164.5,293,164,291.93,163.42,290.89Z"/><path class="cls-2" d="M161,286c.61,1.32,1.23,2.63,1.88,3.93C162.26,288.6,161.64,287.29,161,286Z"/><path class="cls-2" d="M168.32,299.53c.74,1.17,1.49,2.33,2.26,3.47C169.81,301.86,169.06,300.7,168.32,299.53Z"/><path class="cls-2" d="M166,295.55c.48.84,1,1.68,1.48,2.51C166.93,297.23,166.43,296.39,166,295.55Z"/><path class="cls-2" d="M181.29,316.53c.47.51,1,1,1.43,1.52C182.24,317.55,181.76,317,181.29,316.53Z"/><path class="cls-2" d="M355.89,418.42l1.43.5Z"/><path class="cls-2" d="M185.87,321.23c-.5-.48-1-1-1.49-1.46C184.87,320.27,185.37,320.75,185.87,321.23Z"/><path class="cls-2" d="M345.14,414.8c1.06.33,2.14.65,3.19,1C347.28,415.45,346.2,415.13,345.14,414.8Z"/><path class="cls-2" d="M374.52,426.2c1.05.5,2.1,1,3.14,1.53C376.62,427.22,375.57,426.7,374.52,426.2Z"/><path class="cls-2" d="M366,422.38c.92.39,1.81.8,2.72,1.2C367.8,423.18,366.91,422.77,366,422.38Z"/><path class="cls-2" d="M335.5,412l3.57,1Z"/><path class="cls-3" d="M374.52,426.2c-1.91-.9-3.86-1.77-5.81-2.62-.91-.4-1.8-.81-2.72-1.2q-4.28-1.8-8.67-3.46l-1.43-.5q-3.74-1.37-7.56-2.63c-1.05-.34-2.13-.66-3.19-1q-3-.94-6.07-1.82l-3.57-1c-2-.52-4-1-6-1.51-1.19-.28-2.39-.57-3.59-.83-2.17-.48-4.36-.92-6.56-1.35-1.05-.2-2.09-.42-3.15-.61-3.25-.58-6.53-1.12-9.84-1.57v5.73c-7.81,5-22.67,13-42.3,13.53-.71,0-1.41,0-2.11,0-20.91,0-36.7-8.56-44.41-13.53v-5.73a232.18,232.18,0,0,0-78.23,25.1C84.84,460.53,49,510.42,49,567.05v18.38a783.15,783.15,0,0,0,228.54,29.24,779.2,779.2,0,0,0,197.37-29.24V567.05c0-57.21-36.62-107.51-92-136.67q-2.58-1.35-5.21-2.65C376.62,427.22,375.57,426.7,374.52,426.2Z"/><path class="cls-4" d="M217.52,406.14v5.73c7.71,5,23.5,13.52,44.41,13.53.7,0,1.4,0,2.11,0,19.63-.54,34.49-8.49,42.3-13.53v-69a107.35,107.35,0,0,1-44.41,9.58q-2.83,0-5.64-.15c-.56,0-1.12-.08-1.68-.12-1.31-.09-2.62-.19-3.93-.32l-1.83-.23c-1.25-.15-2.49-.31-3.73-.5l-1.77-.31c-1.26-.22-2.51-.45-3.75-.72L238,349.7c-1.3-.29-2.59-.61-3.87-.95l-1.38-.38c-1.38-.39-2.74-.8-4.09-1.24l-1.08-.35c-1.48-.5-2.95-1-4.41-1.6l-.66-.25q-2.52-1-5-2.1Z"/><path class="cls-5" d="M217.52,342.83c-.89-.39-1.76-.81-2.63-1.24l-1.25-.61c-.85-.43-1.7-.86-2.54-1.31-.33-.17-.65-.35-1-.53q-2.4-1.31-4.72-2.74c-.35-.21-.7-.41-1-.63-.79-.5-1.58-1-2.35-1.52l-1.24-.84q-3.74-2.55-7.25-5.4l-1.28-1-2-1.69c-.45-.39-.89-.79-1.33-1.19-1-.94-2.06-1.89-3.06-2.86-.5-.48-1-1-1.49-1.46s-1.11-1.14-1.66-1.72-1-1-1.43-1.52-1-1.13-1.55-1.71-1.18-1.37-1.77-2.06-1.31-1.59-2-2.39-1.07-1.35-1.59-2l-1.25-1.68c-.51-.7-1-1.41-1.51-2.12-.36-.51-.73-1-1.08-1.54-.77-1.14-1.52-2.3-2.26-3.47l-.89-1.47c-.5-.83-1-1.67-1.48-2.51-.3-.52-.59-1-.88-1.57-.57-1-1.11-2.05-1.65-3.09-.17-.33-.35-.66-.51-1-.65-1.3-1.27-2.61-1.88-3.93l-.63-1.44c-.44-1-.87-2-1.28-3-.19-.45-.38-.91-.56-1.36-.55-1.41-1.08-2.83-1.58-4.27-.11-.29-.2-.59-.3-.88-.41-1.21-.8-2.42-1.17-3.64-.15-.47-.29-.94-.42-1.42-.36-1.21-.69-2.42-1-3.65-.09-.32-.18-.64-.26-1-.38-1.52-.72-3.06-1-4.61-.09-.4-.16-.8-.24-1.19-.23-1.22-.46-2.45-.66-3.68-.07-.46-.15-.91-.22-1.37-.24-1.6-.46-3.2-.64-4.82-.26,0-.51,0-.77,0a43,43,0,0,1-30.15-12.44c10.28,37.47,5.9,62.11-.53,78-3.79,9.39-8.58,16.48-18.22,37.93l-.23.51c-11.67,26-1.57,57.22,23,70.31,4.63,2.46,9.68,4.89,15.17,7.2a232.18,232.18,0,0,1,78.23-25.1Z"/><path class="cls-3" d="M222.49,344.93q-2.52-1-5-2.1h0Q220,343.94,222.49,344.93Z"/><path class="cls-3" d="M228.64,347.13c1.35.44,2.71.85,4.09,1.24C231.35,348,230,347.57,228.64,347.13Z"/><path class="cls-3" d="M223.15,345.18c1.46.56,2.93,1.1,4.41,1.6C226.08,346.28,224.61,345.74,223.15,345.18Z"/><path class="cls-3" d="M256.29,352.26q2.81.15,5.64.15Q259.1,352.41,256.29,352.26Z"/><path class="cls-3" d="M234.11,348.75c1.28.34,2.57.66,3.87.95C236.68,349.41,235.39,349.09,234.11,348.75Z"/><path class="cls-3" d="M245.12,351.09c1.24.19,2.48.35,3.73.5C247.6,351.44,246.36,351.28,245.12,351.09Z"/><path class="cls-3" d="M250.68,351.82c1.31.13,2.62.23,3.93.32C253.3,352.05,252,352,250.68,351.82Z"/><path class="cls-3" d="M239.6,350.06c1.24.27,2.49.5,3.75.72C242.09,350.56,240.84,350.33,239.6,350.06Z"/><path class="cls-3" d="M173.17,306.66l1.25,1.68C174,307.79,173.58,307.22,173.17,306.66Z"/><path class="cls-3" d="M179.74,314.82c.51.58,1,1.15,1.55,1.71C180.77,316,180.25,315.4,179.74,314.82Z"/><path class="cls-3" d="M176,310.37c.65.8,1.3,1.6,2,2.39C177.31,312,176.66,311.17,176,310.37Z"/><path class="cls-3" d="M151.67,254.47c.07.46.15.91.22,1.37C151.82,255.38,151.74,254.93,151.67,254.47Z"/><path class="cls-3" d="M217.52,342.83c-.89-.39-1.76-.81-2.63-1.24.87.43,1.74.85,2.63,1.24Z"/><path class="cls-3" d="M160.4,284.53,161,286Z"/><path class="cls-3" d="M155.09,269.94c.13.48.27.95.42,1.42C155.36,270.89,155.22,270.42,155.09,269.94Z"/><path class="cls-3" d="M165.07,294c.29.53.58,1,.88,1.57C165.65,295,165.36,294.51,165.07,294Z"/><path class="cls-3" d="M170.58,303c.35.52.72,1,1.08,1.54C171.3,304,170.93,303.52,170.58,303Z"/><path class="cls-3" d="M167.43,298.06l.89,1.47Z"/><path class="cls-3" d="M152.55,259.52c.08.39.15.79.24,1.19C152.7,260.31,152.63,259.91,152.55,259.52Z"/><path class="cls-3" d="M158.56,280.15c.18.45.37.91.56,1.36C158.93,281.06,158.74,280.6,158.56,280.15Z"/><path class="cls-3" d="M162.91,289.9c.16.33.34.66.51,1C163.25,290.56,163.07,290.23,162.91,289.9Z"/><path class="cls-3" d="M205.41,336.4q2.33,1.44,4.72,2.74Q207.73,337.84,205.41,336.4Z"/><path class="cls-3" d="M156.68,275c.1.29.19.59.3.88C156.87,275.59,156.78,275.29,156.68,275Z"/><path class="cls-3" d="M202,334.25c.77.51,1.56,1,2.35,1.52C203.58,335.27,202.79,334.76,202,334.25Z"/><path class="cls-3" d="M211.1,339.67c.84.45,1.69.88,2.54,1.31C212.79,340.55,211.94,340.12,211.1,339.67Z"/><path class="cls-3" d="M184.38,319.77c-.56-.56-1.11-1.14-1.66-1.72C183.27,318.63,183.82,319.21,184.38,319.77Z"/><path class="cls-3" d="M185.87,321.23c1,1,2,1.92,3.06,2.86C187.89,323.15,186.87,322.2,185.87,321.23Z"/><path class="cls-3" d="M153.83,265.32c.08.33.17.65.26,1C154,266,153.91,265.65,153.83,265.32Z"/><path class="cls-3" d="M193.53,328q3.51,2.85,7.25,5.4Q197,330.86,193.53,328Z"/><path class="cls-3" d="M190.26,325.28l2,1.69Z"/><path class="cls-6" d="M373.7,157.79l-55.72.69c-24.34.31-46.29-15.19-55-38.84-9.71,23.8-32.27,39.14-57.11,38.84l-55.58-.69a43.09,43.09,0,0,0-30.51,12.78,47.13,47.13,0,0,0,.36,66.68,43,43,0,0,0,30.15,12.44c.26,0,.51,0,.77,0,.18,1.62.4,3.22.64,4.82.07.46.15.91.22,1.37.2,1.23.43,2.46.66,3.68.08.39.15.79.24,1.19.32,1.55.66,3.09,1,4.61.08.33.17.65.26,1,.31,1.23.64,2.44,1,3.65.13.48.27.95.42,1.42.37,1.22.76,2.43,1.17,3.64.1.29.19.59.3.88.5,1.44,1,2.86,1.58,4.27.18.45.37.91.56,1.36.41,1,.84,2,1.28,3L161,286c.61,1.32,1.23,2.63,1.88,3.93.16.33.34.66.51,1,.54,1,1.08,2.07,1.65,3.09.29.53.58,1,.88,1.57.48.84,1,1.68,1.48,2.51l.89,1.47c.74,1.17,1.49,2.33,2.26,3.47.35.52.72,1,1.08,1.54.49.71,1,1.42,1.51,2.12s.83,1.13,1.25,1.68,1.06,1.36,1.59,2,1.3,1.6,2,2.39,1.17,1.38,1.77,2.06,1,1.15,1.55,1.71,1,1,1.43,1.52,1.1,1.16,1.66,1.72,1,1,1.49,1.46c1,1,2,1.92,3.06,2.86.44.4.88.8,1.33,1.19l2,1.69,1.28,1q3.51,2.85,7.25,5.4l1.24.84c.77.51,1.56,1,2.35,1.52.34.22.69.42,1,.63q2.33,1.44,4.72,2.74c.32.18.64.36,1,.53.84.45,1.69.88,2.54,1.31l1.25.61c.87.43,1.74.85,2.63,1.24q2.44,1.11,5,2.1l.66.25c1.46.56,2.93,1.1,4.41,1.6l1.08.35c1.35.44,2.71.85,4.09,1.24l1.38.38c1.28.34,2.57.66,3.87.95l1.62.36c1.24.27,2.49.5,3.75.72l1.77.31c1.24.19,2.48.35,3.73.5l1.83.23c1.31.13,2.62.23,3.93.32.56,0,1.12.09,1.68.12q2.81.15,5.64.15a107.35,107.35,0,0,0,44.41-9.58c35.78-16.17,61.84-51.27,66.49-93.18.26,0,.51,0,.77,0a42.63,42.63,0,0,0,4.4-.23c.69-.07,1.36-.21,2-.31s1.48-.2,2.2-.35c.92-.19,1.82-.45,2.71-.7.46-.12.92-.22,1.36-.36,1.06-.33,2.09-.73,3.11-1.14.25-.1.52-.18.77-.29,1.14-.49,2.25-1,3.33-1.6l.35-.18c1.17-.63,2.31-1.32,3.41-2.05l.08,0a44.72,44.72,0,0,0,6.38-5.18,46.68,46.68,0,0,0,14-33.51C417.75,178.4,398,157.85,373.7,157.79Z"/><path class="cls-7" d="M215.39,302.71a81.37,81.37,0,0,1,46.54-15.1,80.53,80.53,0,0,1,46.65,15.23,5.06,5.06,0,0,0,7.89-4.39v0a5.34,5.34,0,0,0-2.11-4.3,88,88,0,0,0-104.82,0,5.33,5.33,0,0,0-2.15,4.31A5.07,5.07,0,0,0,215.39,302.71Z"/><path class="cls-5" d="M290,205.8a57,57,0,0,0,32.62,10.58,56.43,56.43,0,0,0,32.7-10.68,3.55,3.55,0,0,1,5.53,3.08v0a3.72,3.72,0,0,1-1.48,3,61.65,61.65,0,0,1-73.47,0,3.73,3.73,0,0,1-1.51-3A3.55,3.55,0,0,1,290,205.8Z"/><path class="cls-5" d="M235.92,205.8a57,57,0,0,1-32.62,10.58,56.43,56.43,0,0,1-32.7-10.68,3.55,3.55,0,0,0-5.53,3.08v0a3.72,3.72,0,0,0,1.48,3,61.65,61.65,0,0,0,73.47,0,3.73,3.73,0,0,0,1.51-3A3.55,3.55,0,0,0,235.92,205.8Z"/><path class="cls-5" d="M397.28,242.48c-1.11.73-2.24,1.42-3.41,2.05l-.35.18c-1.09.57-2.19,1.12-3.33,1.6-.25.11-.52.19-.77.29-1,.41-2.05.81-3.11,1.14-.44.14-.9.24-1.36.36-.89.25-1.79.51-2.71.7-.72.15-1.46.24-2.2.35s-1.35.24-2,.31a42.63,42.63,0,0,1-4.4.23c-.26,0-.51,0-.77,0-4.65,41.91-30.71,77-66.49,93.18v63.31c3.31.45,6.59,1,9.84,1.57,1.06.19,2.1.41,3.15.61,2.2.43,4.39.87,6.56,1.35,1.2.26,2.4.55,3.59.83,2,.48,4,1,6,1.51l3.57,1q3.06.87,6.07,1.82c1.06.33,2.14.65,3.19,1q3.82,1.26,7.56,2.63l1.43.5q4.4,1.65,8.67,3.46c.92.39,1.81.8,2.72,1.2,2,.85,3.9,1.72,5.81,2.62,1.05.5,2.1,1,3.14,1.53q2.63,1.31,5.21,2.65c.56.3,1.14.56,1.69.86,4.94-2.08,9.52-4.25,13.75-6.46,25.35-13.21,36.57-44.62,25.31-71.69-.07-.18-.15-.36-.22-.53-13.61-32.64-20.91-42.22-24.21-61-2.1-11.94-3-30.18,4.55-54.34h0a44.59,44.59,0,0,1-6.38,5.18Z"/><path class="cls-5" d="M348.33,415.79q3.82,1.26,7.56,2.63Q352.16,417.05,348.33,415.79Z"/><path class="cls-5" d="M339.07,413q3.06.87,6.07,1.82Q342.13,413.86,339.07,413Z"/><path class="cls-5" d="M357.32,418.92q4.4,1.65,8.67,3.46Q361.72,420.58,357.32,418.92Z"/><path class="cls-5" d="M368.71,423.58c2,.85,3.9,1.72,5.81,2.62C372.61,425.3,370.66,424.43,368.71,423.58Z"/><path class="cls-5" d="M319.33,408.32c2.2.43,4.39.87,6.56,1.35C323.72,409.19,321.53,408.75,319.33,408.32Z"/><path class="cls-5" d="M382.87,430.38q-2.58-1.35-5.21-2.65Q380.29,429,382.87,430.38Z"/><path class="cls-5" d="M329.48,410.5c2,.48,4,1,6,1.51C333.51,411.49,331.5,411,329.48,410.5Z"/><path class="cls-5" d="M306.34,406.14c3.31.45,6.59,1,9.84,1.57C312.93,407.13,309.65,406.59,306.34,406.14Z"/><path class="cls-5" d="M390.19,246.31c1.14-.48,2.24-1,3.33-1.6C392.44,245.29,391.33,245.82,390.19,246.31Z"/><path class="cls-5" d="M393.87,244.53c1.17-.63,2.3-1.32,3.41-2.05C396.18,243.21,395,243.9,393.87,244.53Z"/><path class="cls-5" d="M403.74,237.25a44.72,44.72,0,0,1-6.38,5.18A44.59,44.59,0,0,0,403.74,237.25Z"/><path class="cls-5" d="M386.31,247.74c1.06-.33,2.09-.73,3.11-1.14C388.4,247,387.37,247.41,386.31,247.74Z"/><path class="cls-5" d="M382.24,248.8c.92-.19,1.82-.45,2.71-.7C384.06,248.35,383.16,248.61,382.24,248.8Z"/><path class="cls-5" d="M378,249.46c.69-.07,1.36-.21,2-.31C379.36,249.25,378.69,249.39,378,249.46Z"/><path class="cls-5" d="M308.89,28.41c-4.48-.31-8.41-.38-11.55-.38a44.62,44.62,0,0,0-5.58.38,35.4,35.4,0,0,0-29.12,22.67c-1.82-4.29-9.93-20.14-30.06-22.67a44.07,44.07,0,0,0-5.53-.38c-3.14,0-7.07.07-11.55.38-35,2.44-103.68,20.09-95.75,142.13v0a43.09,43.09,0,0,1,30.51-12.78l55.58.69c24.84.3,47.4-15,57.11-38.84,8.74,23.65,30.69,39.15,55,38.84l55.72-.69h.43a43.09,43.09,0,0,1,30.51,12.78v0C412.57,48.5,343.91,30.85,308.89,28.41Z"/><circle class="cls-8" cx="345.14" cy="502.47" r="33.32"/><path class="cls-9" d="M356.43,532l7.36-47.89-2.26-.37c-.09.51-.19,1-.27,1.53-.1.69-.2,1.38-.31,2.08s-.24,1.69-.37,2.54c-.09.66-.21,1.31-.31,2-.14.88-.27,1.77-.4,2.66s-.27,1.64-.39,2.46-.25,1.75-.4,2.62-.33,1.9-.5,2.85c-.12.72-.25,1.44-.36,2.16s-.21,1.34-.3,2c-.13.87-.25,1.75-.38,2.62-.11.65-.23,1.31-.33,2-.13.85-.25,1.7-.38,2.55-.1.67-.22,1.33-.32,2-.14.88-.26,1.75-.39,2.62l-.39,2.47c-.21,1.26-.43,2.52-.64,3.77-.14.85-.29,1.7-.42,2.55-.16,1-.31,2.1-.46,3.16-.12.78-.24,1.57-.38,2.35l2.6-.67Z"/><path class="cls-9" d="M353,529.23c.19-1.23.42-2.46.61-3.69.16-1,.28-2.09.45-3.13.07-.44.22-.86.29-1.3.14-.87.25-1.75.38-2.62.1-.66.23-1.31.33-2,.14-.84.25-1.69.38-2.54.07-.49.18-1,.24-1.47,0-.3.13-.63-.37-.72-.19,0-.35-.28-.52-.42l-1.9-1.54-2.38-2-.08,0,0-.06-.42-.46h0l-.08,0v-.06l-1.41-1.09-.08,0v-.07c-.36-.27-.73-.54-1.07-.83s-.82-.75-1.23-1.13l-.11-.1-.95-.7c-.22-.16-.45-.3-.68-.45l0-.09-.74-.57-.06-.09h0l0,.06-.06-.09L340.68,500l-2-1.6c-.13-.1-.28-.18-.42-.27l0-.08-2.57-2v-.07l-.08,0-1.36-1.18-3.86,25.08c.6.11,1.2.22,1.8.3a.4.4,0,0,0,.3-.24c.12-.58.2-1.17.28-1.77l.3-2c.12-.87.24-1.75.38-2.62.1-.65.22-1.31.33-2,.13-.85.24-1.7.37-2.55.1-.67.22-1.33.32-2,.14-.87.26-1.75.39-2.62s.26-1.62.38-2.43l.24-1.61c0-.07,0-.13.07-.24a2.41,2.41,0,0,1,.31.2,6.86,6.86,0,0,0,1.27,1.1,12.12,12.12,0,0,1,1.51,1.13c.5.34.91.8,1.39,1.18s1,.75,1.54,1.15.91.77,1.37,1.15a2.64,2.64,0,0,0,.37.2l0,.08c.33.24.66.48,1,.74.49.4,1,.83,1.46,1.22s1,.68,1.41,1.05.89.81,1.33,1.21c.13.12.3.2.44.31.54.46,1.07.95,1.64,1.38s1.09.74,1.6,1.14a13.13,13.13,0,0,1,1,1c-.14,1-.29,2.14-.45,3.25-.14.86-.3,1.72-.44,2.58s-.23,1.72-.37,2.58-.28,1.67-.41,2.51c-.16,1-.29,2.11-.45,3.16-.13.85-.29,1.69-.42,2.54s-.25,1.67-.36,2.51a.8.8,0,0,1,0,.18l2.16-.4C352.65,531.87,352.83,530.55,353,529.23Z"/><path class="cls-9" d="M337.12,476c-.21,1.32-.41,2.64-.61,4-.24,1.51-.47,3-.7,4.54-.21,1.33-.41,2.65-.61,4-.24,1.52-.47,3-.7,4.55a.55.55,0,0,0,.08.37c.28.27.59.49.89.75l.93.83.08,0,0,.07c.25.19.51.37.76.57l1.8,1.45.05.08.78.67.08,0,0,.07.32.26v.07l.08,0,.5.48h0l.08,0,0,.07,1.32,1.07.06.09,0-.06.05.09h0a1.39,1.39,0,0,1,.21.11c.49.43,1,.87,1.48,1.29.22.2.47.38.7.57l.08,0v.07l1.59,1.25a1.71,1.71,0,0,0,.23.13l0,.07.07,0,1.44,1.26.08,0v.06l1.3,1.07a1,1,0,0,1,.14.2l.07,0,0,.07.86.67.06,0,0,.07-.1,0,.1,0,.39.29,0,.07.07,0,.06.1.05.08.79.66c.44.38.88.76,1.34,1.11s1,.72,1.49,1.08c.13.1.24.23.36.34l.56.46c1.43-9.1,2.85-18.07,4.27-27.1l-2.23-.36-3.48,22.61-2.95-2.33,0-.06-.07,0-.64-.53-.45-.39-1.28-1.12,0-.08-.06,0a13.86,13.86,0,0,0-1.7-1.38c-.48-.29-.8-.78-1.36-1-.25-.08-.43-.39-.65-.58l-1.59-1.31-1.36-1-1.18-1,0-.06-.07,0c-.68-.53-1.36-1.06-2-1.61-.43-.36-.83-.76-1.26-1.12-.24-.2-.52-.33-.74-.55a.69.69,0,0,1-.23-.51c.12-.86.3-1.72.43-2.58.15-1,.27-2,.42-3,.13-.85.29-1.7.42-2.55s.25-1.75.38-2.62.28-1.64.4-2.47.25-1.75.39-2.62.29-1.72.42-2.58c.08-.46.13-.92.19-1.39a.17.17,0,0,1,0-.07l-2.15.53C337.56,473.24,337.33,474.6,337.12,476Z"/><path class="cls-9" d="M333.91,472.82c-2.39,15.57-4.77,31-7.15,46.5l2.11.34c.19-1.12.39-2.26.56-3.39s.33-2.42.51-3.63.42-2.46.6-3.7c.22-1.41.41-2.83.62-4.24.16-1,.35-2.08.51-3.12s.3-2.11.46-3.16.35-2.08.51-3.13c.13-.83.22-1.67.35-2.5s.29-1.7.42-2.55.25-1.74.38-2.62.27-1.64.4-2.46.25-1.75.39-2.63c.1-.66.23-1.33.33-2,.13-.83.24-1.67.37-2.51.1-.66.22-1.33.32-2,.13-.85.25-1.7.37-2.54a11.94,11.94,0,0,1,.2-1.22l-2.26.56Z"/><rect class="cls-10" x="30.65" y="540.03" width="464.13" height="231.38" rx="47.42"/><rect class="cls-11" x="30.64" y="539.72" width="464.15" height="231.05" rx="47.42"/><rect class="cls-12" x="30.62" y="539.41" width="464.18" height="230.71" rx="47.42"/><rect class="cls-13" x="30.61" y="539.1" width="464.21" height="230.37" rx="47.42"/><rect class="cls-14" x="30.59" y="538.79" width="464.24" height="230.03" rx="47.42"/><rect class="cls-15" x="30.58" y="538.48" width="464.27" height="229.69" rx="47.42"/><rect class="cls-16" x="30.56" y="538.18" width="464.3" height="229.35" rx="47.42"/><rect class="cls-17" x="30.55" y="537.87" width="464.33" height="229.01" rx="47.42"/><rect class="cls-18" x="30.53" y="537.56" width="464.36" height="228.67" rx="47.42"/><rect class="cls-19" x="30.52" y="537.25" width="464.39" height="228.33" rx="47.42"/><rect class="cls-20" x="30.51" y="536.94" width="464.41" height="227.99" rx="47.42"/><rect class="cls-8" x="30.49" y="536.64" width="464.44" height="227.65" rx="47.42"/><rect class="cls-21" x="30.48" y="536.33" width="464.47" height="227.31" rx="47.42"/><rect class="cls-22" x="30.46" y="536.02" width="464.5" height="226.97" rx="47.42"/><rect class="cls-23" x="30.45" y="535.71" width="464.53" height="226.63" rx="47.42"/><rect class="cls-24" x="30.43" y="535.4" width="464.56" height="226.29" rx="47.42"/><rect class="cls-25" x="30.42" y="535.09" width="464.59" height="225.96" rx="47.42"/><rect class="cls-26" x="30.4" y="534.79" width="464.62" height="225.62" rx="47.42"/><rect class="cls-27" x="30.39" y="534.48" width="464.65" height="225.28" rx="47.42"/><rect class="cls-28" x="30.38" y="534.17" width="464.67" height="224.94" rx="47.42"/><rect class="cls-29" x="30.36" y="533.86" width="464.7" height="224.6" rx="47.42"/><rect class="cls-30" x="30.35" y="533.55" width="464.73" height="224.26" rx="47.42"/><rect class="cls-31" x="30.33" y="533.25" width="464.76" height="223.92" rx="47.42"/><rect class="cls-32" x="30.32" y="532.94" width="464.79" height="223.58" rx="47.42"/><rect class="cls-33" x="30.3" y="532.63" width="464.82" height="223.24" rx="47.42"/><rect class="cls-34" x="30.29" y="532.32" width="464.85" height="222.9" rx="47.42"/><rect class="cls-35" x="30.27" y="532.01" width="464.88" height="222.56" rx="47.42"/><rect class="cls-36" x="30.26" y="531.7" width="464.91" height="222.22" rx="47.42"/><rect class="cls-37" x="30.25" y="531.4" width="464.93" height="221.88" rx="47.42"/><rect class="cls-38" x="30.23" y="531.09" width="464.96" height="221.54" rx="47.42"/><rect class="cls-39" x="30.22" y="530.78" width="464.99" height="221.2" rx="47.42"/><rect class="cls-40" x="30.2" y="530.47" width="465.02" height="220.87" rx="47.42"/><rect class="cls-41" x="30.19" y="530.16" width="465.05" height="220.53" rx="47.42"/><rect class="cls-42" x="30.17" y="529.86" width="465.08" height="220.19" rx="47.42"/><rect class="cls-43" x="30.16" y="529.55" width="465.11" height="219.85" rx="47.42"/><rect class="cls-44" x="30.14" y="529.24" width="465.14" height="219.51" rx="47.42"/><rect class="cls-45" x="30.13" y="528.93" width="465.17" height="219.17" rx="47.42"/><rect class="cls-46" x="30.12" y="528.62" width="465.19" height="218.83" rx="47.42"/><rect class="cls-47" x="30.1" y="528.32" width="465.22" height="218.49" rx="47.42"/><rect class="cls-48" x="30.09" y="528.01" width="465.25" height="218.15" rx="47.42"/><rect class="cls-49" x="30.07" y="527.7" width="465.28" height="217.81" rx="47.42"/><rect class="cls-50" x="30.06" y="527.39" width="465.31" height="217.47" rx="47.42"/><rect class="cls-51" x="30.04" y="527.08" width="465.34" height="217.13" rx="47.42"/><rect class="cls-52" x="30.03" y="526.77" width="465.37" height="216.79" rx="47.42"/><rect class="cls-53" x="30.01" y="526.47" width="465.4" height="216.45" rx="47.42"/><rect class="cls-54" x="30" y="526.16" width="465.43" height="216.11" rx="47.42"/><path class="cls-3" d="M110.67,590.82a10.27,10.27,0,0,0,6.93-2.59q3-2.6,3.67-7.78h-9.86V569.33h33.87v11.12h-9.86q.68,5.19,3.67,7.78a10.27,10.27,0,0,0,6.93,2.59l-3,11.12a20.5,20.5,0,0,1-8-1.59,20.28,20.28,0,0,1-6.71-4.56,21,21,0,0,1-6.78,4.56,20.5,20.5,0,0,1-8,1.59Zm24.23,12.6v8.15h12.23v11.12H110.67V611.57h10.89v-8.15Zm14.46-34.83h13.93v56.32H149.36Z"/><path class="cls-3" d="M205.83,591.93h19.64v9.64H172.18v-9.64H191.9v-4h13.93Zm-7-9.63a28.46,28.46,0,0,1-10.19,5.26,46.28,46.28,0,0,1-13.52,1.85l-2.23-8.89a28.42,28.42,0,0,0,9.53-1.48,16.27,16.27,0,0,0,6.67-4.19,10.28,10.28,0,0,0,2.78-6.19h13.93a10.22,10.22,0,0,0,2.78,6.19,16.27,16.27,0,0,0,6.67,4.19,28.4,28.4,0,0,0,9.52,1.48l-2.22,8.89a46.28,46.28,0,0,1-13.52-1.85A28.59,28.59,0,0,1,198.86,582.3Zm13.57,21.27a12.12,12.12,0,0,1,8.37,2.89,10.91,10.91,0,0,1,0,15.56,12.12,12.12,0,0,1-8.37,2.89H185.3a12.12,12.12,0,0,1-8.37-2.89,10.91,10.91,0,0,1,0-15.56,12.12,12.12,0,0,1,8.37-2.89Zm-3.71,12.08a1.4,1.4,0,0,0,1.41-1.41,1.37,1.37,0,0,0-.41-1,1.36,1.36,0,0,0-1-.41H189a1.36,1.36,0,0,0-1,.41,1.34,1.34,0,0,0-.41,1,1.32,1.32,0,0,0,.41,1,1.36,1.36,0,0,0,1,.41Z"/><path class="cls-3" d="M267.72,570.81v9H234.36v-9h9.71v-3.7H258v3.7Zm-13.2,10q5.79,0,9.12,2.52a8.71,8.71,0,0,1,3.33,7.41,8.91,8.91,0,0,1-3.33,7.48q-3.33,2.6-9.12,2.6h-7q-5.79,0-9.12-2.6a8.91,8.91,0,0,1-3.33-7.48,8.71,8.71,0,0,1,3.33-7.41q3.33-2.52,9.12-2.52ZM236,624.91v-22.6h13.94v2.74h22.6v-2.74h13.86v22.6Zm16.83-32.75a2.09,2.09,0,0,0,1.33-.41,1.37,1.37,0,0,0,0-2.15,2.09,2.09,0,0,0-1.33-.41h-3.48a2.12,2.12,0,0,0-1.34.41,1.37,1.37,0,0,0,0,2.15,2.12,2.12,0,0,0,1.34.41Zm-2.89,21.42v2.81h22.6v-2.81Zm36.46-34.69H292v10.75h-5.56v10.82H272.46V568.59h13.93Z"/><path class="cls-3" d="M296.4,569.18h13.93v42.39H328v11.12H296.4Zm52-.74v56.47H334.49V568.44Z"/><path class="cls-3" d="M388.82,569.33v11.12H371.25v31.12H390.3v11.12h-33V569.33ZM409.2,590h5.56v11.11H409.2v23.79H395.26V568.59H409.2Z"/><path class="cls-3" d="M69.35,672.5h53.36v9.7H103v6.53H89.07V682.2H69.35Zm.74-12.6A54.56,54.56,0,0,0,81.32,659a10,10,0,0,0,6.19-3.52H70.83v-9.71h50.4v9.71H104.56a10,10,0,0,0,6.18,3.52,54.63,54.63,0,0,0,11.23.93l-1.48,9.63q-16.53,0-24.46-5.48-7.94,5.48-24.45,5.48Zm14.68,25.27v6.52h36.46v9.64H70.83V685.17Z"/><path class="cls-3" d="M131.61,699.1V645.59h13.93v16h5.19v-16h13.93V699.1Zm13.93-26.38V688h5.19V672.72Zm38,28.61H169.55V644.85h13.94Z"/><path class="cls-3" d="M248.26,678v2.45h6.6a12.3,12.3,0,0,1,8.41,2.81,10.66,10.66,0,0,1,0,15.27,12.31,12.31,0,0,1-8.41,2.82H227.73a12.31,12.31,0,0,1-8.41-2.82,10.66,10.66,0,0,1,0-15.27,12.3,12.3,0,0,1,8.41-2.81h6.6V678H214.61v-8.89H267.9V678Zm-32.91-19.64a54.92,54.92,0,0,0,9.68-.7,12.33,12.33,0,0,0,6.19-2.86H216.1v-8.89h50.39v8.89H251.37a12.29,12.29,0,0,0,6.19,2.86,54.87,54.87,0,0,0,9.67.7l-1.48,8.15a74.4,74.4,0,0,1-14.34-1.22,26.44,26.44,0,0,1-10.12-4,26.39,26.39,0,0,1-10.11,4,74.4,74.4,0,0,1-14.34,1.22Zm37.21,32.54a1.36,1.36,0,0,0-.41-1,1.32,1.32,0,0,0-1-.41H231.44a1.4,1.4,0,0,0-1.41,1.41,1.34,1.34,0,0,0,.41,1,1.35,1.35,0,0,0,1,.4h19.71a1.35,1.35,0,0,0,1-.4A1.37,1.37,0,0,0,252.56,690.88Z"/><path class="cls-3" d="M276.79,659.45q0-6.81,4.41-10.63T293.47,645q7.86,0,12.27,3.82t4.41,10.63v2.22q0,6.83-4.41,10.64t-12.27,3.82q-7.86,0-12.27-3.82t-4.41-10.64Zm52,41.88V678H315v2.74h-22.6V678H278.42v23.35Zm-37.94-38.91a2.7,2.7,0,0,0,4.52,1.89,2.65,2.65,0,0,0,.66-1.89v-3.71a2.71,2.71,0,0,0-4.48-1.93,2.54,2.54,0,0,0-.7,1.93ZM315,689.62v2.81h-22.6v-2.81Zm13.86-44.77H314.89v30.83h13.93Z"/><path class="cls-3" d="M337.72,645.59h13.93V688h17.64V699.1H337.72Zm52-.74v56.48H375.81V644.85Z"/><path class="cls-3" d="M430.13,645.74v11.12H412.57V688h19.05V699.1h-33V645.74Zm20.39,20.68h5.55v11.12h-5.55v23.79H436.58V645h13.94Z"/></g></g></svg>