<svg xmlns="http://www.w3.org/2000/svg" shape-rendering="geometricPrecision" text-rendering="geometricPrecision" image-rendering="optimizeQuality" fill-rule="evenodd" clip-rule="evenodd" viewBox="0 0 512 467.64"><path d="m512 365.66-.01 81.79c.03 10.76-8.82 19.61-19.63 19.61h-45.21V346.07l45.24.02c10.76 0 19.57 8.85 19.61 19.57zM156.84 240.2c2.29-2.55 5.47-4.14 8.94-4.14l180.45.01c3.53-.01 6.72 1.55 8.99 4.07 2.2 2.46 3.56 5.88 3.56 9.63 0 3.67-1.41 7.1-3.62 9.56-2.28 2.53-5.45 4.14-8.93 4.14H165.78c-3.52 0-6.72-1.56-8.98-4.08-2.2-2.45-3.58-5.86-3.58-9.62 0-3.68 1.41-7.1 3.62-9.57zm0-87.27c2.29-2.55 5.47-4.14 8.94-4.14h91.55c3.54 0 6.72 1.56 8.99 4.08 2.19 2.45 3.56 5.85 3.56 9.62 0 3.69-1.41 7.1-3.62 9.56-2.28 2.55-5.45 4.14-8.93 4.14h-91.55c-3.54 0-6.72-1.56-8.98-4.09-2.2-2.44-3.58-5.87-3.58-9.62 0-3.69 1.41-7.09 3.62-9.55zM350.28 52.28l89.32 83.67h-89.32V52.28zm139.01 100.09c0-6.8-5.03-12.93-10.83-18.76L346.87 5.47A14.71 14.71 0 0 0 335.4 0H105.81c-7.43 0-14.08 3-18.9 7.82-4.83 4.81-7.83 11.48-7.83 18.92v298.2l5.55-3.08a35.279 35.279 0 0 1 18.5-4.45l5.81-.01V29.73H320.4v121.09c0 8.23 6.65 15 15 15h124.04v150.77l29.85.02V152.37zM101.85 467.64c-21.38-11.32-42.84-22.62-64.25-33.93-44.63-26.51-51.25-18.37-10.57-45l74.85-41.82 322.38-.8v120.95l-322.41.6zm.03-100.09v79.44c-14.05-7.46-28.13-14.89-42.19-22.31-33.06-17.48-38.18-12.15-6.96-29.61l49.15-27.52z"/></svg>